<mxfile host="app.diagrams.net" modified="2024-01-29T16:26:15.756Z" agent="Mozilla/5.0 (Windows NT 10.0; Win64; x64) AppleWebKit/537.36 (KHTML, like Gecko) Chrome/121.0.0.0 Safari/537.36" etag="cxMXY_kme9gdJ4dCzCUm" version="23.0.2" type="github">
  <diagram name="Page-1" id="gOath-oJ5RgIoASjMbkN">
    <mxGraphModel dx="1050" dy="570" grid="1" gridSize="10" guides="1" tooltips="1" connect="1" arrows="1" fold="1" page="1" pageScale="1" pageWidth="1100" pageHeight="850" math="0" shadow="0">
      <root>
        <mxCell id="0" />
        <mxCell id="1" parent="0" />
        <mxCell id="mIl7Lz5ezfY_drpD4fqg-57" value="TBL_CATEGORY" style="shape=table;startSize=30;container=1;collapsible=0;childLayout=tableLayout;" vertex="1" parent="1">
          <mxGeometry x="110" y="130" width="550" height="175" as="geometry" />
        </mxCell>
        <mxCell id="mIl7Lz5ezfY_drpD4fqg-58" value="" style="shape=tableRow;horizontal=0;startSize=0;swimlaneHead=0;swimlaneBody=0;strokeColor=inherit;top=0;left=0;bottom=0;right=0;collapsible=0;dropTarget=0;fillColor=none;points=[[0,0.5],[1,0.5]];portConstraint=eastwest;" vertex="1" parent="mIl7Lz5ezfY_drpD4fqg-57">
          <mxGeometry y="30" width="550" height="65" as="geometry" />
        </mxCell>
        <mxCell id="mIl7Lz5ezfY_drpD4fqg-59" value="Fieldname" style="shape=partialRectangle;html=1;whiteSpace=wrap;connectable=0;strokeColor=inherit;overflow=hidden;fillColor=none;top=0;left=0;bottom=0;right=0;pointerEvents=1;" vertex="1" parent="mIl7Lz5ezfY_drpD4fqg-58">
          <mxGeometry width="110" height="65" as="geometry">
            <mxRectangle width="110" height="65" as="alternateBounds" />
          </mxGeometry>
        </mxCell>
        <mxCell id="mIl7Lz5ezfY_drpD4fqg-60" value="Data Type" style="shape=partialRectangle;html=1;whiteSpace=wrap;connectable=0;strokeColor=inherit;overflow=hidden;fillColor=none;top=0;left=0;bottom=0;right=0;pointerEvents=1;" vertex="1" parent="mIl7Lz5ezfY_drpD4fqg-58">
          <mxGeometry x="110" width="108" height="65" as="geometry">
            <mxRectangle width="108" height="65" as="alternateBounds" />
          </mxGeometry>
        </mxCell>
        <mxCell id="mIl7Lz5ezfY_drpD4fqg-61" value="Field Length" style="shape=partialRectangle;html=1;whiteSpace=wrap;connectable=0;strokeColor=inherit;overflow=hidden;fillColor=none;top=0;left=0;bottom=0;right=0;pointerEvents=1;" vertex="1" parent="mIl7Lz5ezfY_drpD4fqg-58">
          <mxGeometry x="218" width="72" height="65" as="geometry">
            <mxRectangle width="72" height="65" as="alternateBounds" />
          </mxGeometry>
        </mxCell>
        <mxCell id="mIl7Lz5ezfY_drpD4fqg-62" value="Contraint" style="shape=partialRectangle;html=1;whiteSpace=wrap;connectable=0;strokeColor=inherit;overflow=hidden;fillColor=none;top=0;left=0;bottom=0;right=0;pointerEvents=1;" vertex="1" parent="mIl7Lz5ezfY_drpD4fqg-58">
          <mxGeometry x="290" width="110" height="65" as="geometry">
            <mxRectangle width="110" height="65" as="alternateBounds" />
          </mxGeometry>
        </mxCell>
        <mxCell id="mIl7Lz5ezfY_drpD4fqg-63" value="Discription" style="shape=partialRectangle;html=1;whiteSpace=wrap;connectable=0;strokeColor=inherit;overflow=hidden;fillColor=none;top=0;left=0;bottom=0;right=0;pointerEvents=1;" vertex="1" parent="mIl7Lz5ezfY_drpD4fqg-58">
          <mxGeometry x="400" width="150" height="65" as="geometry">
            <mxRectangle width="150" height="65" as="alternateBounds" />
          </mxGeometry>
        </mxCell>
        <mxCell id="mIl7Lz5ezfY_drpD4fqg-64" value="" style="shape=tableRow;horizontal=0;startSize=0;swimlaneHead=0;swimlaneBody=0;strokeColor=inherit;top=0;left=0;bottom=0;right=0;collapsible=0;dropTarget=0;fillColor=none;points=[[0,0.5],[1,0.5]];portConstraint=eastwest;" vertex="1" parent="mIl7Lz5ezfY_drpD4fqg-57">
          <mxGeometry y="95" width="550" height="40" as="geometry" />
        </mxCell>
        <mxCell id="mIl7Lz5ezfY_drpD4fqg-65" value="Cat_no" style="shape=partialRectangle;html=1;whiteSpace=wrap;connectable=0;strokeColor=inherit;overflow=hidden;fillColor=none;top=0;left=0;bottom=0;right=0;pointerEvents=1;" vertex="1" parent="mIl7Lz5ezfY_drpD4fqg-64">
          <mxGeometry width="110" height="40" as="geometry">
            <mxRectangle width="110" height="40" as="alternateBounds" />
          </mxGeometry>
        </mxCell>
        <mxCell id="mIl7Lz5ezfY_drpD4fqg-66" value="number" style="shape=partialRectangle;html=1;whiteSpace=wrap;connectable=0;strokeColor=inherit;overflow=hidden;fillColor=none;top=0;left=0;bottom=0;right=0;pointerEvents=1;" vertex="1" parent="mIl7Lz5ezfY_drpD4fqg-64">
          <mxGeometry x="110" width="108" height="40" as="geometry">
            <mxRectangle width="108" height="40" as="alternateBounds" />
          </mxGeometry>
        </mxCell>
        <mxCell id="mIl7Lz5ezfY_drpD4fqg-67" value="10&lt;span style=&quot;white-space: pre;&quot;&gt;&#x9;&lt;/span&gt;" style="shape=partialRectangle;html=1;whiteSpace=wrap;connectable=0;strokeColor=inherit;overflow=hidden;fillColor=none;top=0;left=0;bottom=0;right=0;pointerEvents=1;" vertex="1" parent="mIl7Lz5ezfY_drpD4fqg-64">
          <mxGeometry x="218" width="72" height="40" as="geometry">
            <mxRectangle width="72" height="40" as="alternateBounds" />
          </mxGeometry>
        </mxCell>
        <mxCell id="mIl7Lz5ezfY_drpD4fqg-68" value="primary key" style="shape=partialRectangle;html=1;whiteSpace=wrap;connectable=0;strokeColor=inherit;overflow=hidden;fillColor=none;top=0;left=0;bottom=0;right=0;pointerEvents=1;" vertex="1" parent="mIl7Lz5ezfY_drpD4fqg-64">
          <mxGeometry x="290" width="110" height="40" as="geometry">
            <mxRectangle width="110" height="40" as="alternateBounds" />
          </mxGeometry>
        </mxCell>
        <mxCell id="mIl7Lz5ezfY_drpD4fqg-69" value="unique id for category" style="shape=partialRectangle;html=1;whiteSpace=wrap;connectable=0;strokeColor=inherit;overflow=hidden;fillColor=none;top=0;left=0;bottom=0;right=0;pointerEvents=1;" vertex="1" parent="mIl7Lz5ezfY_drpD4fqg-64">
          <mxGeometry x="400" width="150" height="40" as="geometry">
            <mxRectangle width="150" height="40" as="alternateBounds" />
          </mxGeometry>
        </mxCell>
        <mxCell id="mIl7Lz5ezfY_drpD4fqg-70" value="" style="shape=tableRow;horizontal=0;startSize=0;swimlaneHead=0;swimlaneBody=0;strokeColor=inherit;top=0;left=0;bottom=0;right=0;collapsible=0;dropTarget=0;fillColor=none;points=[[0,0.5],[1,0.5]];portConstraint=eastwest;" vertex="1" parent="mIl7Lz5ezfY_drpD4fqg-57">
          <mxGeometry y="135" width="550" height="40" as="geometry" />
        </mxCell>
        <mxCell id="mIl7Lz5ezfY_drpD4fqg-71" value="Cat_name" style="shape=partialRectangle;html=1;whiteSpace=wrap;connectable=0;strokeColor=inherit;overflow=hidden;fillColor=none;top=0;left=0;bottom=0;right=0;pointerEvents=1;" vertex="1" parent="mIl7Lz5ezfY_drpD4fqg-70">
          <mxGeometry width="110" height="40" as="geometry">
            <mxRectangle width="110" height="40" as="alternateBounds" />
          </mxGeometry>
        </mxCell>
        <mxCell id="mIl7Lz5ezfY_drpD4fqg-72" value="varchar2" style="shape=partialRectangle;html=1;whiteSpace=wrap;connectable=0;strokeColor=inherit;overflow=hidden;fillColor=none;top=0;left=0;bottom=0;right=0;pointerEvents=1;" vertex="1" parent="mIl7Lz5ezfY_drpD4fqg-70">
          <mxGeometry x="110" width="108" height="40" as="geometry">
            <mxRectangle width="108" height="40" as="alternateBounds" />
          </mxGeometry>
        </mxCell>
        <mxCell id="mIl7Lz5ezfY_drpD4fqg-73" value="20" style="shape=partialRectangle;html=1;whiteSpace=wrap;connectable=0;strokeColor=inherit;overflow=hidden;fillColor=none;top=0;left=0;bottom=0;right=0;pointerEvents=1;" vertex="1" parent="mIl7Lz5ezfY_drpD4fqg-70">
          <mxGeometry x="218" width="72" height="40" as="geometry">
            <mxRectangle width="72" height="40" as="alternateBounds" />
          </mxGeometry>
        </mxCell>
        <mxCell id="mIl7Lz5ezfY_drpD4fqg-74" value="not null" style="shape=partialRectangle;html=1;whiteSpace=wrap;connectable=0;strokeColor=inherit;overflow=hidden;fillColor=none;top=0;left=0;bottom=0;right=0;pointerEvents=1;" vertex="1" parent="mIl7Lz5ezfY_drpD4fqg-70">
          <mxGeometry x="290" width="110" height="40" as="geometry">
            <mxRectangle width="110" height="40" as="alternateBounds" />
          </mxGeometry>
        </mxCell>
        <mxCell id="mIl7Lz5ezfY_drpD4fqg-75" value="name for category" style="shape=partialRectangle;html=1;whiteSpace=wrap;connectable=0;strokeColor=inherit;overflow=hidden;fillColor=none;top=0;left=0;bottom=0;right=0;pointerEvents=1;" vertex="1" parent="mIl7Lz5ezfY_drpD4fqg-70">
          <mxGeometry x="400" width="150" height="40" as="geometry">
            <mxRectangle width="150" height="40" as="alternateBounds" />
          </mxGeometry>
        </mxCell>
      </root>
    </mxGraphModel>
  </diagram>
</mxfile>
